<?xml version="1.0" encoding="utf-8"?>
<!-- Generator: Adobe Illustrator 19.0.0, SVG Export Plug-In . SVG Version: 6.00 Build 0)  -->
<svg version="1.1" id="Layer_1" xmlns="http://www.w3.org/2000/svg" xmlns:xlink="http://www.w3.org/1999/xlink" x="0px" y="0px"
	 viewBox="0 0 257 40" style="enable-background:new 0 0 257 40;" xml:space="preserve">
<style type="text/css">
	.st0{fill:#FFFFFF;}
</style>
<g id="XMLID_42_">
	<path id="XMLID_43_" class="st0" d="M1.5,14.4c0.5-0.1,0.9-0.2,1.2-0.5C3,13.7,3.1,13.4,3.1,13V4.8h1v8.1c0,0.7-0.2,1.3-0.7,1.6
		c-0.4,0.4-1,0.6-1.8,0.7L1.5,14.4z"/>
	<path id="XMLID_45_" class="st0" d="M7.3,13.4c-0.4-0.2-0.7-0.4-0.9-0.7C6.2,12.3,6,12,5.9,11.6c-0.1-0.4-0.2-0.8-0.2-1.2
		s0.1-0.8,0.2-1.2c0.1-0.4,0.3-0.7,0.5-1S7,7.6,7.3,7.4c0.4-0.2,0.8-0.3,1.3-0.3c0.5,0,0.9,0.1,1.3,0.3c0.4,0.2,0.7,0.4,0.9,0.7
		c0.2,0.3,0.4,0.6,0.5,1c0.1,0.4,0.2,0.8,0.2,1.2s-0.1,0.8-0.2,1.2c-0.1,0.4-0.3,0.7-0.5,1c-0.2,0.3-0.5,0.5-0.9,0.7
		c-0.4,0.2-0.8,0.3-1.3,0.3S7.7,13.6,7.3,13.4z M7.2,12.1c0.2,0.2,0.4,0.4,0.6,0.6c0.2,0.1,0.5,0.2,0.8,0.2c0.3,0,0.6-0.1,0.8-0.2
		s0.4-0.3,0.6-0.6c0.2-0.2,0.3-0.5,0.4-0.8c0.1-0.3,0.1-0.6,0.1-0.9c0-0.3,0-0.6-0.1-0.9c-0.1-0.3-0.2-0.6-0.4-0.8
		C9.9,8.5,9.7,8.3,9.4,8.1S8.9,7.9,8.6,7.9S8,8,7.8,8.1S7.3,8.5,7.2,8.7C7,8.9,6.9,9.2,6.8,9.5c-0.1,0.3-0.1,0.6-0.1,0.9
		c0,0.3,0,0.6,0.1,0.9C6.9,11.6,7,11.8,7.2,12.1z"/>
	<path id="XMLID_48_" class="st0" d="M13.9,11.3c0,0.5,0.1,0.9,0.4,1.2c0.3,0.2,0.6,0.4,1.1,0.4c0.3,0,0.6-0.1,1-0.2
		s0.6-0.3,0.8-0.5V7.3h1v6.2h-0.9L17.2,13c-0.3,0.2-0.5,0.3-0.8,0.5c-0.3,0.1-0.7,0.2-1.1,0.2c-0.8,0-1.4-0.2-1.8-0.6
		c-0.4-0.4-0.6-1-0.6-1.8V7.3h1V11.3z"/>
	<path id="XMLID_50_" class="st0" d="M20,13.5V7.3h0.9L21,7.8c0.2-0.2,0.4-0.3,0.6-0.5c0.3-0.1,0.5-0.2,0.8-0.2c0.2,0,0.4,0,0.5,0
		c0.2,0,0.3,0.1,0.4,0.1l-0.2,0.9C22.9,8.1,22.6,8,22.3,8c-0.3,0-0.5,0.1-0.7,0.2c-0.2,0.1-0.4,0.3-0.6,0.4v4.8H20z"/>
	<path id="XMLID_52_" class="st0" d="M24.2,13.5V7.3h0.9l0.1,0.5c0.3-0.2,0.5-0.3,0.9-0.5c0.3-0.1,0.7-0.2,1.1-0.2
		c0.8,0,1.4,0.2,1.8,0.6s0.5,1,0.5,1.9v3.9h-1V9.6c0-0.5-0.1-0.9-0.4-1.2c-0.2-0.3-0.6-0.4-1.1-0.4c-0.3,0-0.7,0.1-1,0.2
		s-0.6,0.3-0.8,0.5v4.9H24.2z"/>
	<path id="XMLID_54_" class="st0" d="M34.6,13.5L34.6,13c-0.2,0.2-0.5,0.4-0.7,0.5c-0.3,0.1-0.6,0.2-0.9,0.2c-0.3,0-0.5,0-0.8-0.1
		c-0.3-0.1-0.5-0.2-0.7-0.4c-0.2-0.2-0.4-0.4-0.5-0.6c-0.1-0.2-0.2-0.5-0.2-0.8c0-0.4,0.1-0.8,0.4-1.1c0.2-0.3,0.5-0.5,0.9-0.7
		c0.4-0.2,0.8-0.3,1.2-0.4s0.9-0.1,1.3-0.1V9.4c0-0.5-0.1-0.9-0.3-1.1c-0.2-0.2-0.5-0.3-1-0.3c-0.3,0-0.5,0.1-0.8,0.2
		c-0.2,0.1-0.4,0.3-0.6,0.5l-0.7-0.5c0.3-0.3,0.5-0.6,0.9-0.7c0.3-0.2,0.8-0.2,1.3-0.2c0.7,0,1.2,0.2,1.6,0.5
		c0.4,0.4,0.6,0.9,0.6,1.8v4H34.6z M34.5,10.3c-0.3,0-0.6,0-0.9,0.1c-0.3,0-0.6,0.1-0.9,0.2c-0.3,0.1-0.5,0.2-0.7,0.4
		c-0.2,0.2-0.3,0.4-0.3,0.8c0,0.2,0,0.4,0.1,0.5s0.2,0.3,0.3,0.3c0.1,0.1,0.2,0.2,0.4,0.2s0.3,0.1,0.4,0.1c0.3,0,0.6-0.1,0.8-0.2
		c0.3-0.1,0.5-0.3,0.7-0.4V10.3z"/>
	<path id="XMLID_57_" class="st0" d="M37.3,13.5V4.8h1v8.7H37.3z"/>
	<path id="XMLID_59_" class="st0" d="M44,13.4c-0.4-0.2-0.7-0.4-0.9-0.7c-0.2-0.3-0.4-0.7-0.5-1.1c-0.1-0.4-0.2-0.8-0.2-1.2
		s0.1-0.8,0.2-1.2c0.1-0.4,0.3-0.7,0.5-1s0.5-0.5,0.9-0.7c0.4-0.2,0.8-0.3,1.3-0.3c0.5,0,0.9,0.1,1.3,0.3c0.4,0.2,0.7,0.4,0.9,0.7
		c0.2,0.3,0.4,0.6,0.5,1c0.1,0.4,0.2,0.8,0.2,1.2s-0.1,0.8-0.2,1.2c-0.1,0.4-0.3,0.7-0.5,1c-0.2,0.3-0.5,0.5-0.9,0.7
		c-0.4,0.2-0.8,0.3-1.3,0.3S44.4,13.6,44,13.4z M43.8,12.1c0.2,0.2,0.4,0.4,0.6,0.6c0.2,0.1,0.5,0.2,0.8,0.2c0.3,0,0.6-0.1,0.8-0.2
		s0.4-0.3,0.6-0.6c0.2-0.2,0.3-0.5,0.4-0.8c0.1-0.3,0.1-0.6,0.1-0.9c0-0.3,0-0.6-0.1-0.9c-0.1-0.3-0.2-0.6-0.4-0.8
		c-0.2-0.2-0.4-0.4-0.6-0.6s-0.5-0.2-0.8-0.2S44.7,8,44.4,8.1S44,8.5,43.8,8.7c-0.2,0.2-0.3,0.5-0.4,0.8c-0.1,0.3-0.1,0.6-0.1,0.9
		c0,0.3,0,0.6,0.1,0.9C43.6,11.6,43.7,11.8,43.8,12.1z"/>
	<path id="XMLID_62_" class="st0" d="M49.9,13.5V8.1H49V7.3h0.9V6.8c0-0.4,0-0.7,0.1-1c0.1-0.3,0.2-0.5,0.4-0.7
		C50.6,5,50.8,4.9,51,4.8c0.2-0.1,0.5-0.1,0.8-0.1c0.3,0,0.6,0,0.8,0.1s0.4,0.1,0.6,0.2l-0.3,0.8c-0.1-0.1-0.3-0.1-0.5-0.2
		c-0.2-0.1-0.4-0.1-0.6-0.1c-0.1,0-0.3,0-0.4,0.1c-0.1,0-0.2,0.1-0.3,0.2S51,6,51,6.2s-0.1,0.4-0.1,0.7v0.4h1.5v0.8h-1.5v5.4H49.9z"
		/>
</g>
<g id="XMLID_1_">
	<path id="XMLID_5_" class="st0" d="M1.2,32.9V18.2h3L8.6,28l3.9-9.8h3.1v14.7h-2.9v-8.2l-3.5,8.3H8l-3.9-8.4v8.3H1.2z"/>
	<path id="XMLID_7_" class="st0" d="M20.9,28.2c0.1,0.9,0.3,1.5,0.8,1.9c0.5,0.4,1,0.6,1.6,0.6c0.5,0,1-0.1,1.4-0.3s0.8-0.6,1.3-1.2
		l2.1,1.3c-0.6,0.9-1.3,1.6-2.1,1.9c-0.8,0.4-1.7,0.6-2.8,0.6c-0.7,0-1.4-0.1-2-0.3c-0.6-0.2-1.2-0.6-1.7-1c-0.5-0.5-0.9-1-1.1-1.7
		c-0.3-0.7-0.4-1.5-0.4-2.5c0-0.9,0.1-1.7,0.4-2.4s0.6-1.3,1.1-1.7c0.5-0.5,1-0.8,1.6-1.1s1.3-0.4,2-0.4c1.5,0,2.7,0.5,3.6,1.6
		c0.9,1,1.4,2.6,1.4,4.7H20.9z M25.2,26.3c-0.1-0.7-0.3-1.2-0.7-1.6s-0.9-0.5-1.3-0.5c-0.2,0-0.5,0-0.7,0.1
		c-0.2,0.1-0.5,0.2-0.7,0.4s-0.4,0.4-0.5,0.7c-0.1,0.3-0.2,0.6-0.3,0.9H25.2z"/>
	<path id="XMLID_10_" class="st0" d="M37,32.9L36.9,32c-0.3,0.3-0.6,0.5-1,0.7c-0.4,0.2-0.9,0.3-1.5,0.3c-0.8,0-1.4-0.2-2-0.5
		c-0.6-0.3-1.1-0.7-1.5-1.2c-0.4-0.5-0.7-1.1-0.9-1.8c-0.2-0.7-0.3-1.4-0.3-2.1c0-0.7,0.1-1.4,0.3-2c0.2-0.7,0.5-1.3,1-1.8
		c0.4-0.5,1-0.9,1.7-1.3c0.7-0.3,1.4-0.5,2.3-0.5c0.6,0,1.2,0.1,1.9,0.3v-4.1h2.9v14.7H37z M36.7,24.6c-0.5-0.2-1.1-0.3-1.5-0.3
		c-0.5,0-0.9,0.1-1.3,0.3c-0.4,0.2-0.7,0.4-0.9,0.7c-0.2,0.3-0.4,0.6-0.5,1c-0.1,0.4-0.2,0.8-0.2,1.2c0,0.4,0.1,0.9,0.2,1.3
		c0.1,0.4,0.3,0.8,0.5,1.1c0.2,0.3,0.5,0.5,0.8,0.7s0.7,0.3,1.1,0.3c0.4,0,0.7-0.1,1.1-0.3s0.6-0.4,0.8-0.6V24.6z"/>
	<path id="XMLID_13_" class="st0" d="M43.9,21c-0.6,0-1-0.2-1.3-0.5c-0.3-0.3-0.4-0.7-0.4-1.1c0-0.4,0.1-0.7,0.4-1.1
		c0.3-0.3,0.7-0.5,1.3-0.5c0.6,0,1,0.2,1.3,0.5c0.3,0.3,0.4,0.7,0.4,1.1c0,0.4-0.1,0.8-0.4,1.1S44.5,21,43.9,21z M42.5,32.9V22.3
		h2.9v10.6H42.5z"/>
	<path id="XMLID_16_" class="st0" d="M57.2,30.3c-0.5,1-1.1,1.7-1.8,2.1c-0.8,0.5-1.7,0.7-2.7,0.7c-0.7,0-1.3-0.1-1.9-0.4
		c-0.6-0.2-1.2-0.6-1.7-1c-0.5-0.5-0.9-1-1.1-1.7c-0.3-0.7-0.4-1.5-0.4-2.4c0-0.9,0.1-1.8,0.4-2.5c0.3-0.7,0.6-1.3,1.1-1.8
		c0.5-0.5,1-0.8,1.6-1c0.6-0.2,1.2-0.3,1.9-0.3c0.6,0,1.2,0.1,1.7,0.3c0.5,0.2,0.9,0.4,1.3,0.7c0.4,0.3,0.7,0.6,0.9,1
		c0.2,0.4,0.4,0.7,0.6,1.1l-2.3,1.1c-0.2-0.7-0.6-1.2-0.9-1.5c-0.4-0.3-0.8-0.4-1.3-0.4c-0.3,0-0.6,0.1-0.8,0.2
		c-0.3,0.1-0.5,0.3-0.7,0.6s-0.4,0.6-0.5,1c-0.1,0.4-0.2,0.9-0.2,1.5c0,1,0.2,1.8,0.7,2.4c0.4,0.6,1,0.8,1.7,0.8
		c0.6,0,1-0.1,1.4-0.4c0.4-0.3,0.7-0.7,0.9-1.2L57.2,30.3z"/>
	<path id="XMLID_18_" class="st0" d="M64.8,32.9l-0.1-0.8c-0.3,0.3-0.7,0.6-1.2,0.8c-0.5,0.2-1,0.3-1.6,0.3c-0.5,0-0.9-0.1-1.4-0.2
		c-0.4-0.2-0.8-0.4-1.2-0.7c-0.3-0.3-0.6-0.6-0.8-1.1c-0.2-0.4-0.3-0.9-0.3-1.4c0-0.5,0.1-1,0.3-1.4c0.2-0.4,0.5-0.7,0.9-1
		c0.4-0.3,0.8-0.5,1.3-0.7c0.5-0.2,1-0.3,1.5-0.4c0.4-0.1,0.8-0.1,1.2-0.2s0.8-0.1,1.1-0.1v-0.4c0-0.4-0.1-0.8-0.4-1
		c-0.3-0.3-0.6-0.4-1-0.4c-0.2,0-0.6,0.1-0.9,0.2c-0.4,0.1-0.7,0.4-1.1,0.7l-2-1.4c0.3-0.4,0.6-0.6,1-0.9s0.7-0.4,1.1-0.5
		c0.4-0.1,0.7-0.2,1.1-0.3s0.7-0.1,1-0.1c0.6,0,1.2,0.1,1.7,0.2c0.5,0.2,1,0.4,1.3,0.7s0.7,0.7,0.9,1.3c0.2,0.5,0.3,1.1,0.3,1.8v6.8
		H64.8z M64.5,27.9c-0.3,0-0.6,0-0.9,0.1s-0.6,0.1-0.9,0.1c-0.6,0.1-1,0.3-1.3,0.6C61.1,29,61,29.3,61,29.7c0,0.4,0.1,0.6,0.4,0.8
		s0.7,0.3,1.2,0.3c0.4,0,0.7-0.1,1.1-0.2s0.6-0.3,0.9-0.6V27.9z"/>
	<path id="XMLID_21_" class="st0" d="M70.2,32.9V18.2h2.9v14.7H70.2z"/>
	<path id="XMLID_23_" class="st0" d="M86.7,27.7v-2.5h5.2v7.1c-0.6,0.3-1.3,0.5-2.2,0.7c-0.8,0.2-1.9,0.3-3.2,0.3
		c-0.9,0-1.8-0.2-2.6-0.5c-0.8-0.3-1.5-0.8-2.1-1.5s-1-1.4-1.4-2.4s-0.5-2-0.5-3.2c0-1.3,0.2-2.5,0.5-3.4s0.8-1.8,1.4-2.4
		c0.6-0.6,1.3-1.1,2.1-1.4c0.8-0.3,1.6-0.5,2.5-0.5c1.3,0,2.4,0.3,3.2,0.8c0.8,0.5,1.5,1.3,2,2.4l-2.4,1.3c-0.3-0.6-0.7-1.1-1.1-1.4
		c-0.4-0.3-1-0.5-1.7-0.5c-0.4,0-0.9,0.1-1.3,0.3c-0.4,0.2-0.8,0.5-1.1,0.9c-0.3,0.4-0.6,1-0.8,1.6c-0.2,0.6-0.3,1.4-0.3,2.3
		c0,0.8,0.1,1.4,0.3,2.1c0.2,0.6,0.5,1.1,0.8,1.6c0.4,0.4,0.8,0.8,1.2,1s1,0.4,1.5,0.4c0.5,0,0.9,0,1.3-0.1c0.4,0,0.7-0.1,1-0.2
		v-2.6H86.7z"/>
	<path id="XMLID_25_" class="st0" d="M96.4,28.2c0.1,0.9,0.3,1.5,0.8,1.9c0.5,0.4,1,0.6,1.6,0.6c0.5,0,1-0.1,1.4-0.3
		s0.8-0.6,1.3-1.2l2.1,1.3c-0.6,0.9-1.3,1.6-2.1,1.9c-0.8,0.4-1.7,0.6-2.8,0.6c-0.7,0-1.4-0.1-2-0.3c-0.6-0.2-1.2-0.6-1.7-1
		c-0.5-0.5-0.9-1-1.1-1.7c-0.3-0.7-0.4-1.5-0.4-2.5c0-0.9,0.1-1.7,0.4-2.4s0.6-1.3,1.1-1.7c0.5-0.5,1-0.8,1.6-1.1s1.3-0.4,2-0.4
		c1.5,0,2.7,0.5,3.6,1.6c0.9,1,1.4,2.6,1.4,4.7H96.4z M100.7,26.3c-0.1-0.7-0.3-1.2-0.7-1.6s-0.9-0.5-1.3-0.5c-0.2,0-0.5,0-0.7,0.1
		c-0.2,0.1-0.5,0.2-0.7,0.4s-0.4,0.4-0.5,0.7c-0.1,0.3-0.2,0.6-0.3,0.9H100.7z"/>
	<path id="XMLID_28_" class="st0" d="M105.7,32.9V22.3h2.6l0.1,0.8c0.4-0.4,0.9-0.6,1.5-0.8c0.6-0.2,1.1-0.3,1.7-0.3
		c0.6,0,1.1,0.1,1.6,0.3c0.5,0.2,0.9,0.4,1.3,0.8s0.6,0.8,0.8,1.4c0.2,0.6,0.3,1.3,0.3,2.1v6.3h-2.9v-6.1c0-0.8-0.2-1.4-0.5-1.9
		c-0.4-0.4-0.8-0.7-1.5-0.7c-0.4,0-0.9,0.1-1.2,0.3c-0.4,0.2-0.7,0.5-1,0.7v7.5H105.7z"/>
	<path id="XMLID_30_" class="st0" d="M120.7,28.2c0.1,0.9,0.3,1.5,0.8,1.9c0.5,0.4,1,0.6,1.6,0.6c0.5,0,1-0.1,1.4-0.3
		s0.8-0.6,1.3-1.2l2.1,1.3c-0.6,0.9-1.3,1.6-2.1,1.9c-0.8,0.4-1.7,0.6-2.8,0.6c-0.7,0-1.4-0.1-2-0.3c-0.6-0.2-1.2-0.6-1.7-1
		c-0.5-0.5-0.9-1-1.1-1.7c-0.3-0.7-0.4-1.5-0.4-2.5c0-0.9,0.1-1.7,0.4-2.4s0.6-1.3,1.1-1.7c0.5-0.5,1-0.8,1.6-1.1s1.3-0.4,2-0.4
		c1.5,0,2.7,0.5,3.6,1.6c0.9,1,1.4,2.6,1.4,4.7H120.7z M125,26.3c-0.1-0.7-0.3-1.2-0.7-1.6s-0.9-0.5-1.3-0.5c-0.2,0-0.5,0-0.7,0.1
		c-0.2,0.1-0.5,0.2-0.7,0.4s-0.4,0.4-0.5,0.7c-0.1,0.3-0.2,0.6-0.3,0.9H125z"/>
	<path id="XMLID_33_" class="st0" d="M133.3,29.9c0,0.3,0.1,0.6,0.2,0.7s0.3,0.2,0.5,0.2c0.3,0,0.6-0.1,0.9-0.2s0.5-0.3,0.7-0.5l1,2
		c-0.5,0.3-1,0.6-1.5,0.8c-0.5,0.2-1.1,0.3-1.7,0.3c-0.4,0-0.7-0.1-1.1-0.2c-0.4-0.1-0.7-0.3-0.9-0.5c-0.3-0.2-0.5-0.5-0.7-0.9
		c-0.2-0.4-0.3-0.8-0.3-1.3v-5.8h-1.6v-2.2h1.6v-2.8h2.9v2.8h2.6v2.2h-2.6V29.9z"/>
	<path id="XMLID_35_" class="st0" d="M139.5,21c-0.6,0-1-0.2-1.3-0.5s-0.4-0.7-0.4-1.1c0-0.4,0.1-0.7,0.4-1.1
		c0.3-0.3,0.7-0.5,1.3-0.5s1,0.2,1.3,0.5c0.3,0.3,0.4,0.7,0.4,1.1c0,0.4-0.1,0.8-0.4,1.1S140.1,21,139.5,21z M138.1,32.9V22.3h2.9
		v10.6H138.1z"/>
	<path id="XMLID_38_" class="st0" d="M152.9,30.3c-0.5,1-1.1,1.7-1.8,2.1c-0.8,0.5-1.7,0.7-2.7,0.7c-0.7,0-1.3-0.1-1.9-0.4
		s-1.2-0.6-1.7-1c-0.5-0.5-0.9-1-1.1-1.7s-0.4-1.5-0.4-2.4c0-0.9,0.1-1.8,0.4-2.5c0.3-0.7,0.6-1.3,1.1-1.8c0.5-0.5,1-0.8,1.6-1
		c0.6-0.2,1.2-0.3,1.9-0.3c0.6,0,1.2,0.1,1.7,0.3s0.9,0.4,1.3,0.7c0.4,0.3,0.7,0.6,0.9,1s0.4,0.7,0.6,1.1l-2.3,1.1
		c-0.3-0.7-0.6-1.2-0.9-1.5c-0.4-0.3-0.8-0.4-1.3-0.4c-0.3,0-0.6,0.1-0.8,0.2c-0.3,0.1-0.5,0.3-0.7,0.6c-0.2,0.3-0.4,0.6-0.5,1
		c-0.1,0.4-0.2,0.9-0.2,1.5c0,1,0.2,1.8,0.7,2.4c0.4,0.6,1,0.8,1.7,0.8c0.6,0,1-0.1,1.4-0.4c0.4-0.3,0.7-0.7,0.9-1.2L152.9,30.3z"/>
	<path id="XMLID_40_" class="st0" d="M155.9,29.3c0.2,0.5,0.6,0.9,1,1.2c0.4,0.3,1,0.5,1.7,0.5c0.6,0,1-0.1,1.4-0.3s0.5-0.4,0.5-0.8
		c0-0.3-0.2-0.6-0.5-0.8c-0.4-0.2-1-0.4-2-0.6c-0.6-0.1-1.1-0.2-1.5-0.4s-0.9-0.4-1.2-0.6c-0.3-0.3-0.6-0.6-0.7-0.9
		c-0.2-0.4-0.3-0.8-0.3-1.3c0-0.9,0.4-1.7,1.2-2.3c0.8-0.6,1.8-0.9,3.2-0.9c1.2,0,2.2,0.2,2.9,0.6c0.7,0.4,1.2,0.9,1.6,1.4l-2,1.4
		c-0.3-0.4-0.6-0.6-1-0.9c-0.4-0.2-0.9-0.4-1.5-0.4c-0.6,0-1,0.1-1.3,0.3s-0.4,0.4-0.4,0.7c0,0.3,0.1,0.6,0.4,0.7
		c0.3,0.1,0.8,0.3,1.6,0.5c0.6,0.1,1.2,0.3,1.7,0.5s0.9,0.4,1.3,0.7c0.4,0.3,0.6,0.6,0.8,1s0.3,0.8,0.3,1.3c0,0.6-0.1,1.1-0.4,1.5
		s-0.6,0.8-1,1c-0.4,0.3-0.9,0.5-1.5,0.6c-0.6,0.1-1.2,0.2-1.8,0.2c-1.3,0-2.3-0.2-3.1-0.7c-0.8-0.5-1.4-1.1-1.8-1.8L155.9,29.3z"/>
</g>
</svg>
