<?xml version="1.0" encoding="utf-8"?>
<!-- Generator: Adobe Illustrator 24.0.1, SVG Export Plug-In . SVG Version: 6.00 Build 0)  -->
<svg version="1.1" id="jbc_70h" xmlns="http://www.w3.org/2000/svg" xmlns:xlink="http://www.w3.org/1999/xlink" x="0px" y="0px"
	 viewBox="0 0 228.4 70" style="enable-background:new 0 0 228.4 70;" xml:space="preserve" width="228.4" height="70">
<style type="text/css">
	.st0{fill:#FFFFFF;}
</style>
<g>
	<path class="st0" d="M0.9,60.1c1.9,0.7,5.4,0.7,5.8,0.7c3.8,0,5.2-2.9,5.2-6.3v-46h9.8v46c0,8.4-4.1,15.5-15,15.5
		c-1.3,0-4.3-0.5-6.7-1.1L0.9,60.1z"/>
	<path class="st0" d="M52.5,29.9c6,1.5,8.6,6.7,8.6,10.4c0,7.6-5.5,14-14.6,14H26.9V8.6h18.3c8.2,0,13.6,4.9,13.6,12.8
		C58.8,24.3,57.3,28.1,52.5,29.9 M44.3,26.6c2.5,0,4.3-2,4.3-4.7c0-2.9-1.5-4.8-4.3-4.8h-7.6v9.5H44.3z M36.7,34.7v11.1H46
		c3.3,0,4.9-2.9,4.9-5.6c0-2.6-1.7-5.4-5.1-5.4H36.7z"/>
	<path class="st0" d="M104.9,45c-4,6-11,10-19.3,10c-13.1,0-23-10.6-23-23.4c0-13,9.9-23.5,23-23.5c8.2,0,15.1,3.9,19.1,9.7
		l-7.9,5.4c-2.5-3.6-6.4-6-11.2-6c-7.6,0-13.2,6.4-13.2,14.3c0,7.9,5.6,14.3,13.2,14.3c4.8,0,9-2.6,11.4-6.3L104.9,45z"/>
	<rect x="116.9" class="st0" width="1" height="62.5"/>
	<path class="st0" d="M129.2,21.5c0.5,0.2,1.4,0.2,1.5,0.2c1,0,1.3-0.7,1.3-1.6V8.3h2.5v11.8c0,2.1-1,4-3.8,4
		c-0.3,0-1.1-0.1-1.7-0.3L129.2,21.5z"/>
	<path class="st0" d="M141.9,8.2c3.3,0,6,2.7,6,6c0,3.3-2.6,6-6,6c-3.3,0-5.9-2.7-5.9-6C136,10.9,138.6,8.2,141.9,8.2 M141.9,17.8
		c1.9,0,3.5-1.6,3.5-3.5c0-2-1.5-3.6-3.5-3.6c-1.9,0-3.5,1.6-3.5,3.6C138.5,16.2,140,17.8,141.9,17.8"/>
	<path class="st0" d="M155.7,15.9V8.3h2.5v7.5c0,2.7-2.1,4.4-4.5,4.4c-2.4,0-4.6-1.7-4.6-4.4V8.3h2.5v7.5c0,1.2,1,2,2,2
		C154.7,17.9,155.7,17.1,155.7,15.9"/>
	<path class="st0" d="M168.9,20.1h-3l-2.6-4h-0.6v4h-2.5V8.3h4.8c2.7,0,3.9,1.9,3.9,3.8c0,1.7-0.9,3.3-2.9,3.7L168.9,20.1z
		 M162.7,10.5v3.3h2.1c1,0,1.5-0.9,1.5-1.6c0-0.7-0.5-1.6-1.4-1.6H162.7z"/>
	<polygon class="st0" points="179.8,20.1 177.6,20.1 173.5,13 173.5,20.1 171,20.1 171,8.3 173.3,8.3 177.3,15.3 177.3,8.3 
		179.8,8.3 	"/>
	<path class="st0" d="M184.8,17.3l-1,2.8h-2.7l4.4-11.7h2.7l4.3,11.7h-2.6l-1-2.8H184.8z M188,15.1l-1.2-4.1l-1.2,4.1H188z"/>
	<polygon class="st0" points="193.8,8.3 196.3,8.3 196.3,17.9 200.7,17.9 200.7,20.1 193.8,20.1 	"/>
	<path class="st0" d="M211.9,8.2c3.3,0,5.9,2.7,5.9,6c0,3.3-2.6,6-5.9,6c-3.3,0-5.9-2.7-5.9-6C205.9,10.9,208.6,8.2,211.9,8.2
		 M211.9,17.8c1.9,0,3.5-1.6,3.5-3.5c0-2-1.5-3.6-3.5-3.6c-1.9,0-3.5,1.6-3.5,3.6C208.4,16.2,209.9,17.8,211.9,17.8"/>
	<polygon class="st0" points="219.2,8.3 226.6,8.3 226.6,10.5 221.7,10.5 221.7,13.2 225.6,13.2 225.6,15.4 221.7,15.4 221.7,20.1 
		219.2,20.1 	"/>
	<path class="st0" d="M138.6,30.9c1.5,0.4,2.2,1.7,2.2,2.7c0,1.9-1.4,3.6-3.7,3.6h-5V25.5h4.7c2.1,0,3.5,1.3,3.5,3.3
		C140.2,29.5,139.8,30.5,138.6,30.9 M136.5,30.1c0.6,0,1.1-0.5,1.1-1.2c0-0.7-0.4-1.2-1.1-1.2h-1.9v2.4H136.5z M134.6,32.2V35h2.4
		c0.8,0,1.3-0.7,1.3-1.4c0-0.7-0.4-1.4-1.3-1.4H134.6z"/>
	<rect x="142.2" y="25.5" class="st0" width="2.5" height="11.7"/>
	<path class="st0" d="M152,25.3c3.3,0,5.9,2.7,5.9,6c0,3.3-2.6,6-5.9,6c-3.3,0-5.9-2.7-5.9-6C146.1,28,148.7,25.3,152,25.3
		 M152,34.9c1.9,0,3.5-1.6,3.5-3.5c0-2-1.5-3.6-3.5-3.6c-1.9,0-3.5,1.6-3.5,3.6C148.6,33.3,150.1,34.9,152,34.9"/>
	<polygon class="st0" points="159.4,25.5 161.9,25.5 161.9,35 166.3,35 166.3,37.2 159.4,37.2 	"/>
	<path class="st0" d="M172.7,25.3c3.3,0,6,2.7,6,6c0,3.3-2.6,6-6,6c-3.3,0-5.9-2.7-5.9-6C166.7,28,169.3,25.3,172.7,25.3
		 M172.7,34.9c1.9,0,3.5-1.6,3.5-3.5c0-2-1.5-3.6-3.5-3.6c-1.9,0-3.5,1.6-3.5,3.6C169.2,33.3,170.7,34.9,172.7,34.9"/>
	<path class="st0" d="M188.6,28.8c-0.6-0.7-1.5-1.2-2.6-1.2c-2,0-3.5,1.7-3.5,3.7c0,2,1.5,3.7,3.5,3.7c1.3,0,2.8-0.8,2.8-2h-3.1v-2
		h6c0,4.4-2.3,6.3-5.7,6.3c-3.4,0-6-2.7-6-6c0-3.3,2.6-6,6-6c1.8,0,3.4,0.7,4.4,1.9L188.6,28.8z"/>
	<rect x="193.5" y="25.5" class="st0" width="2.5" height="11.7"/>
	<path class="st0" d="M208.6,34.8c-1,1.5-2.8,2.6-4.9,2.6c-3.3,0-5.9-2.7-5.9-6c0-3.3,2.5-6,5.9-6c2.1,0,3.9,1,4.9,2.5l-2,1.4
		c-0.6-0.9-1.6-1.5-2.9-1.5c-2,0-3.4,1.6-3.4,3.7c0,2,1.4,3.7,3.4,3.7c1.2,0,2.3-0.7,2.9-1.6L208.6,34.8z"/>
	<path class="st0" d="M212.5,34.4l-1,2.8h-2.7l4.4-11.7h2.7l4.3,11.7h-2.6l-1-2.8H212.5z M215.8,32.3l-1.2-4.1l-1.2,4.1H215.8z"/>
	<polygon class="st0" points="221.5,25.5 224,25.5 224,35 228.4,35 228.4,37.2 221.5,37.2 	"/>
	<path class="st0" d="M142.2,51.2c-1,1.5-2.8,2.6-4.9,2.6c-3.3,0-5.9-2.7-5.9-6c0-3.3,2.5-6,5.9-6c2.1,0,3.9,1,4.9,2.5l-2,1.4
		c-0.6-0.9-1.6-1.5-2.9-1.5c-2,0-3.4,1.6-3.4,3.7c0,2,1.4,3.7,3.4,3.7c1.2,0,2.3-0.7,2.9-1.6L142.2,51.2z"/>
	<polygon class="st0" points="152.8,41.9 152.8,53.6 150.3,53.6 150.3,48.9 146.1,48.9 146.1,53.6 143.6,53.6 143.6,41.9 
		146.1,41.9 146.1,46.7 150.3,46.7 150.3,41.9 	"/>
	<polygon class="st0" points="154.9,41.9 162.3,41.9 162.3,44.1 157.4,44.1 157.4,46.8 161.7,46.8 161.7,48.9 157.4,48.9 
		157.4,51.4 162.4,51.4 162.4,53.6 154.9,53.6 	"/>
	<polygon class="st0" points="174.6,41.9 176.7,41.9 178.1,53.6 175.6,53.6 174.8,46.6 172,52.3 170.1,52.3 167.4,46.6 166.5,53.6 
		164,53.6 165.5,41.9 167.5,41.9 171.1,49.5 	"/>
	<rect x="180.2" y="41.9" class="st0" width="2.5" height="11.7"/>
	<path class="st0" d="M187.3,50.2c0,0.7,0.6,1.4,1.8,1.4c1,0,1.7-0.5,1.7-1.2c0-0.5-0.2-1-1.4-1.3l-1.4-0.4c-2.6-0.8-3-2.3-3-3.4
		c0-2.1,1.8-3.5,4-3.5c2.3,0,4,1.3,4,3.6h-2.5c0-0.8-0.5-1.3-1.5-1.3c-0.9,0-1.5,0.5-1.5,1.2c0,0.3,0.1,0.9,1.3,1.2l1.4,0.4
		c2.8,0.8,3.2,2.4,3.2,3.5c0,2.3-2.1,3.4-4.2,3.4c-2.5,0-4.2-1.5-4.2-3.6H187.3z"/>
	<polygon class="st0" points="194.1,41.9 202.9,41.9 202.9,44.2 199.8,44.2 199.8,53.6 197.3,53.6 197.3,44.2 194.1,44.2 	"/>
	<path class="st0" d="M213.1,53.6h-3l-2.6-4H207v4h-2.5V41.9h4.8c2.7,0,3.9,1.9,3.9,3.8c0,1.7-0.9,3.3-2.9,3.7L213.1,53.6z
		 M207,44.1v3.3h2.1c1,0,1.5-0.9,1.5-1.6c0-0.7-0.5-1.6-1.4-1.6H207z"/>
	<polygon class="st0" points="217.9,53.6 217.9,48.3 213.4,41.9 216.3,41.9 219.2,46.3 222,41.9 225,41.9 220.4,48.4 220.4,53.6 	
		"/>
</g>
</svg>
