<?xml version="1.0" encoding="utf-8"?>
<!-- Generator: Adobe Illustrator 19.0.0, SVG Export Plug-In . SVG Version: 6.00 Build 0)  -->
<svg version="1.1" id="Logo" xmlns="http://www.w3.org/2000/svg" xmlns:xlink="http://www.w3.org/1999/xlink" x="0px" y="0px"
	 viewBox="0 0 278 73.3" style="enable-background:new 0 0 278 73.3;" xml:space="preserve">
<style type="text/css">
	.Arched_x0020_Green{fill:url(#SVGID_1_);stroke:#FFFFFF;stroke-width:0.25;stroke-miterlimit:1;}
	.st0{fill:#0070B9;}
	.st1{fill:#5E6167;}
</style>
<linearGradient id="SVGID_1_" gradientUnits="userSpaceOnUse" x1="-18.9331" y1="92.2451" x2="-18.226" y2="91.538">
	<stop  offset="0" style="stop-color:#20AC4B"/>
	<stop  offset="0.9831" style="stop-color:#19361A"/>
</linearGradient>
<g>
	<g>
		<path class="st0" d="M100.1,73.3L100.1,73.3c-0.7,0-1.2-0.5-1.2-1.2c0-0.2,0.1-0.4,0.2-0.6l8.9-12.5c4.3-6.2,5-6.8,5-13.1l0-43.5
			c0-1.3,1.1-2.4,2.4-2.4h7.2c1.3,0,2.4,1.1,2.4,2.4v1.7v43.3c0,6.4-2,9.2-6,14.9l-7.5,10.2c-0.4,0.5-1,0.9-1.7,0.9H100.1z"/>
		<path class="st0" d="M32.9,26.7c0-0.3,0.3-0.5,0.3-0.5c2.5-1.5,6.2-5.2,6.2-11.4C39.4,4.7,30.6,0,22.7,0H2.4C1.1,0,0,1.1,0,2.4V52
			c0,1.3,1.1,2.4,2.4,2.4H24c8.2,0,17-4.8,17-14.5c0-7.7-5.1-11.3-7.8-12.7C33.2,27.2,32.9,27,32.9,26.7z M12.1,10.3
			c0-0.7,0.5-1.2,1.2-1.2h5c3.2,0,8.6,0.7,8.6,6.4c0,5.5-5.9,6.3-8.3,6.3h-5.3c-0.7,0-1.2-0.5-1.2-1.2V10.3z M22.9,45
			c-1.1,0.2-2.8,0.3-4.1,0.3h-5.6c-0.7,0-1.2-0.5-1.2-1.2V33.4c0-0.7,0.5-1.2,1.2-1.2h5.9c1.1,0,2.8,0.1,3.8,0.3
			c1,0.2,5.2,1.2,5.2,6.5C28.2,43.3,24,44.8,22.9,45z"/>
		<path class="st0" d="M85.8,22.1c0.1-0.2,0.3-0.3,0.5-0.3c0.3,0,0.6,0.3,0.6,0.6l0,29.6c0,1.3,1.1,2.4,2.4,2.4h7.2
			c1.3,0,2.4-1.1,2.4-2.4V2.4c0-1.3-1.1-2.4-2.4-2.4h-7.7c-0.8,0-1.6,0.4-2,1.1L74.6,18.1c-0.1,0.1-0.3,0.2-0.5,0.2
			c-0.2,0-0.4-0.1-0.5-0.2l-12.2-17c-0.4-0.6-1.2-1.1-2-1.1h-7.5c-1.5,0-2.6,1-2.6,2.5V52c0,1.3,1.1,2.4,2.4,2.4h7.2
			c1.3,0,2.4-1.1,2.4-2.4l0-29.6c0-0.3,0.3-0.6,0.6-0.6c0.2,0,0.4,0.1,0.5,0.3l8.9,12.6c0.4,0.6,1.1,1,1.9,1h1.4
			c0.8,0,1.5-0.4,1.9-1L85.8,22.1z"/>
	</g>
	<g>
		<path class="st1" d="M138.9,31.6c1.7-0.3,3-0.8,3.9-1.5c0.9-0.7,1.4-1.8,1.4-3.1V0h3.4v26.8c0,2.3-0.7,4.1-2.2,5.4
			c-1.5,1.2-3.4,2-5.9,2.3L138.9,31.6z"/>
		<path class="st1" d="M157.5,28.3c-1.2-0.6-2.2-1.5-3-2.5c-0.8-1-1.4-2.2-1.8-3.5c-0.4-1.3-0.6-2.6-0.6-4c0-1.3,0.2-2.7,0.6-3.9
			c0.4-1.3,1-2.4,1.8-3.4c0.8-1,1.8-1.8,3-2.4c1.2-0.6,2.6-0.9,4.2-0.9c1.6,0,3,0.3,4.2,0.9c1.2,0.6,2.2,1.4,3,2.4
			c0.8,1,1.4,2.1,1.8,3.4c0.4,1.3,0.6,2.6,0.6,4c0,1.3-0.2,2.7-0.6,4c-0.4,1.3-1,2.4-1.8,3.4c-0.8,1-1.8,1.8-3,2.4
			c-1.2,0.6-2.6,0.9-4.2,0.9C160.1,29.2,158.7,28.9,157.5,28.3z M157,24c0.5,0.7,1.2,1.4,2,1.8c0.8,0.5,1.7,0.7,2.7,0.7
			c1.1,0,2-0.2,2.8-0.7c0.8-0.5,1.4-1.1,2-1.8c0.5-0.8,0.9-1.6,1.2-2.6s0.4-2,0.4-3c0-1-0.1-2-0.4-3c-0.3-1-0.7-1.8-1.2-2.6
			c-0.5-0.8-1.2-1.4-2-1.8c-0.8-0.5-1.7-0.7-2.8-0.7c-1.1,0-2,0.2-2.8,0.7c-0.8,0.5-1.4,1.1-2,1.8c-0.5,0.8-0.9,1.6-1.2,2.6
			c-0.3,1-0.4,1.9-0.4,2.9c0,1,0.1,2,0.4,3C156.1,22.3,156.4,23.2,157,24z"/>
		<path class="st1" d="M179.1,21.4c0,1.8,0.4,3.1,1.2,3.9c0.8,0.8,2.1,1.2,3.7,1.2c1.1,0,2.1-0.2,3.2-0.7c1-0.4,1.9-1,2.6-1.6v-16
			h3.4v20.5h-3.1l-0.2-1.6c-0.8,0.6-1.7,1.1-2.7,1.5c-1,0.4-2.2,0.6-3.7,0.6c-2.7,0-4.7-0.7-5.9-2s-1.8-3.3-1.8-6v-13h3.3V21.4z"/>
		<path class="st1" d="M198.9,28.7V8.2h3l0.3,1.8c0.5-0.6,1.2-1.1,2.1-1.6c0.9-0.5,1.7-0.7,2.6-0.7c0.6,0,1.2,0,1.7,0.1
			c0.5,0.1,0.9,0.2,1.2,0.3l-0.6,3.1c-0.7-0.3-1.6-0.5-2.7-0.5c-0.8,0-1.6,0.2-2.4,0.7c-0.8,0.5-1.4,0.9-2,1.4v16H198.9z"/>
		<path class="st1" d="M212.5,28.7V8.2h3.1l0.2,1.6c0.8-0.6,1.8-1.1,2.9-1.5c1.1-0.4,2.3-0.6,3.5-0.6c2.8,0,4.8,0.7,6,2.1
			s1.7,3.4,1.7,6.2v12.8h-3.3V15.9c0-1.7-0.4-3.1-1.2-4c-0.8-1-2-1.5-3.8-1.5c-1.1,0-2.2,0.2-3.2,0.7c-1,0.5-1.9,1-2.7,1.6v16.1
			H212.5z"/>
		<path class="st1" d="M247,28.7l-0.2-1.8c-0.7,0.7-1.5,1.3-2.5,1.7c-0.9,0.4-2,0.6-3.1,0.6c-0.9,0-1.8-0.1-2.6-0.4
			s-1.6-0.7-2.2-1.2c-0.6-0.5-1.2-1.2-1.6-2c-0.4-0.8-0.6-1.7-0.6-2.8c0-1.5,0.4-2.7,1.2-3.6c0.8-0.9,1.8-1.7,3-2.3
			c1.2-0.6,2.5-1,4-1.2c1.5-0.2,2.9-0.3,4.3-0.3v-0.3c0-1.7-0.4-3-1.1-3.7c-0.7-0.7-1.8-1.1-3.2-1.1c-0.9,0-1.8,0.2-2.6,0.6
			c-0.8,0.4-1.5,1-2,1.7l-2.3-1.6c0.8-1.1,1.8-1.9,2.9-2.5s2.6-0.8,4.3-0.8c2.3,0,4.1,0.6,5.4,1.8c1.3,1.2,1.9,3.1,1.9,5.9v13.4H247
			z M246.7,18c-0.9,0-1.9,0.1-3,0.2c-1.1,0.1-2,0.3-2.9,0.7s-1.6,0.8-2.2,1.4s-0.9,1.5-0.9,2.5c0,0.7,0.1,1.2,0.4,1.7
			c0.3,0.5,0.6,0.8,1,1.1c0.4,0.3,0.8,0.5,1.3,0.6c0.5,0.1,0.9,0.2,1.4,0.2c1,0,1.9-0.2,2.8-0.6c0.8-0.4,1.6-0.9,2.3-1.5V18z"/>
		<path class="st1" d="M255.6,28.7V0h3.3v28.7H255.6z"/>
		<path class="st1" d="M265.7,23.6c0.5,0.9,1.1,1.6,1.9,2.1c0.8,0.5,1.8,0.8,3.1,0.8c2.8,0,4.2-1,4.2-3c0-0.6-0.1-1.1-0.3-1.5
			c-0.2-0.4-0.5-0.8-0.9-1.1c-0.4-0.3-1-0.6-1.6-0.9c-0.7-0.3-1.5-0.6-2.4-1c-1-0.3-1.9-0.7-2.6-1.1c-0.7-0.4-1.3-0.8-1.8-1.3
			c-0.5-0.5-0.8-1-1-1.5s-0.3-1.2-0.3-2c0-1.7,0.6-3,1.8-3.9c1.2-0.9,2.8-1.4,4.8-1.4c1.7,0,3.1,0.3,4.2,0.8s2.1,1.4,2.8,2.4
			l-2.3,1.8c-0.6-0.7-1.2-1.3-2-1.7c-0.8-0.5-1.6-0.7-2.6-0.7c-1.2,0-2.1,0.2-2.7,0.7c-0.6,0.5-0.9,1.1-0.9,1.7
			c0,0.4,0.1,0.8,0.2,1.1c0.2,0.3,0.4,0.6,0.8,0.9c0.4,0.3,0.9,0.5,1.6,0.8c0.6,0.3,1.5,0.6,2.5,0.9c1.9,0.7,3.3,1.5,4.3,2.5
			c1,1,1.5,2.3,1.5,4c0,1-0.2,1.8-0.6,2.6c-0.4,0.8-0.9,1.4-1.5,1.9c-0.6,0.5-1.4,0.9-2.3,1.2c-0.9,0.3-1.9,0.4-2.9,0.4
			c-2,0-3.6-0.4-4.8-1.1s-2.1-1.7-2.8-2.8L265.7,23.6z"/>
	</g>
</g>
</svg>
